<?xml version="1.0" encoding="UTF-8"?> <svg xmlns="http://www.w3.org/2000/svg" width="67.07" height="34.379" viewBox="0 0 67.07 34.379"> <path d="M66.57,135.394a1.429,1.429,0,0,1-1.429,1.429H1.429a1.429,1.429,0,0,1,0-2.858H65.141A1.429,1.429,0,0,1,66.57,135.394ZM48.538,109.486a6.541,6.541,0,1,1,6.541,6.542A6.549,6.549,0,0,1,48.538,109.486Zm2.858,0a3.683,3.683,0,1,0,3.683-3.683A3.687,3.687,0,0,0,51.4,109.486ZM11.847,124.726l-.019,0c-.027-.006-.054-.011-.081-.015l-.066-.01-.066-.006c-.028,0-.055,0-.083,0h-.02l-.037,0c-.029,0-.058,0-.087,0l-.06.007-.076.012-.07.015-.062.016-.077.025-.051.019-.079.034-.046.022q-.038.02-.075.041l-.046.028-.067.045-.047.036-.057.047-.049.045-.048.048-.048.053-.041.05c-.015.019-.03.039-.044.059s-.025.036-.037.055-.025.04-.037.061-.023.043-.034.065-.019.038-.027.057-.022.051-.032.078-.013.034-.019.052-.018.058-.026.088c0,.011-.007.022-.01.033s0,.012,0,.018c-.006.028-.011.056-.016.084s-.007.042-.01.063,0,.045-.006.068,0,.055,0,.082c0,.007,0,.013,0,.02v3.794a1.429,1.429,0,1,0,2.858,0v-1.979l16.209,3.908a1.429,1.429,0,0,0,1.764-1.408l-.144-11.19H47.26l5.328,11.311c0,.007.007.013.011.019a1.472,1.472,0,0,0,.085.151l.011.018a1.434,1.434,0,0,0,.106.137l.041.045q.046.049.1.094c.011.009.021.02.032.029a1.424,1.424,0,0,0,.137.1l.045.027a1.429,1.429,0,0,0,.126.067l.032.015a1.385,1.385,0,0,0,.166.06l.04.01c.044.012.088.021.134.028l.057.009a1.444,1.444,0,0,0,.147.01l.029,0h3.793a1.429,1.429,0,1,0,0-2.858H54.787L49.459,117.2c-.006-.013-.014-.025-.02-.038s-.02-.039-.031-.058-.027-.047-.042-.069l-.03-.045c-.017-.025-.035-.049-.054-.072l-.029-.035q-.031-.036-.064-.07l-.031-.03c-.022-.022-.045-.042-.069-.062l-.038-.031c-.022-.017-.045-.034-.068-.051l-.05-.033-.062-.038-.064-.034-.056-.027-.074-.031-.053-.02-.077-.024-.059-.015-.073-.015-.071-.011-.064-.007-.084,0-.033,0H29.322a1.429,1.429,0,0,0-1.429,1.447l.139,10.8ZM4.938,113.659a1.423,1.423,0,0,0,.863-.291l2.255-1.712,15.963,6.765a1.429,1.429,0,0,0,1.115-2.632L8.441,108.716h0l-.03-.013-.031-.011c-.03-.012-.06-.023-.09-.033l-.056-.016c-.025-.007-.05-.014-.076-.019l-.069-.013-.066-.01-.074-.007-.064,0H7.811l-.068,0-.065.007-.075.011-.056.011-.081.02-.05.015c-.027.009-.054.018-.081.028l-.05.021c-.025.011-.05.022-.074.034l-.057.031-.061.036c-.023.015-.045.03-.068.046l-.036.024-2.915,2.212a1.429,1.429,0,0,0,.865,2.568Z" transform="translate(0.25 -102.694)" fill="#0270e9" stroke="#0270e9" stroke-width="0.5"></path> </svg> 