<?xml version="1.0" encoding="UTF-8"?> <svg xmlns="http://www.w3.org/2000/svg" id="checked" width="22.115" height="22.145" viewBox="0 0 22.115 22.145"> <path id="Контур_13216" data-name="Контур 13216" d="M20,20.712c-3.389,2.766-13.969,2.766-17.288,0-3.389-2.766-3.043-14.591,0-17.7S16.96-.1,20,3.009,23.392,17.946,20,20.712Z" transform="translate(-0.301 -0.642)" fill="#8dc640"></path> <g id="Сгруппировать_3111" data-name="Сгруппировать 3111" transform="translate(0.01 0)" opacity="0.2"> <path id="Контур_13217" data-name="Контур 13217" d="M11.626,15.23a16.191,16.191,0,0,1-9.612,3.734C-.337,14.953.147,5.2,2.913,2.367,5.4-.192,13.217-.676,17.712.915,18.818,5.479,16.536,11.288,11.626,15.23Z" transform="translate(-0.509 0)" fill="#fff"></path> </g> <path id="Контур_13218" data-name="Контур 13218" d="M88.2,113.693a1.479,1.479,0,0,1-1.245-.622l-3.873-4.979a1.577,1.577,0,1,1,2.49-1.936l2.628,3.389,5.809-7.538a1.577,1.577,0,0,1,2.49,1.936l-7.054,9.128A1.809,1.809,0,0,1,88.2,113.693Z" transform="translate(-78.731 -96.459)" fill="#fff"></path> </svg> 