<?xml version="1.0" encoding="UTF-8"?> <svg xmlns="http://www.w3.org/2000/svg" width="67.07" height="47.871" viewBox="0 0 67.07 47.871"> <path d="M66.57,106.582a1.429,1.429,0,0,1-1.429,1.429H1.429a1.429,1.429,0,0,1,0-2.858H65.141A1.429,1.429,0,0,1,66.57,106.582Zm-55.906-4.846h5.672a1.429,1.429,0,0,0,1.423-1.564L16.734,89.341l9.518-.008L37.7,98.878H27.725l1.919-2.191a1.429,1.429,0,0,0,0-1.913L27.653,92.5a1.429,1.429,0,0,0-2.15,1.883l1.18,1.347L23.5,99.362a1.435,1.435,0,0,0-.267.445h0v.005h0a1.426,1.426,0,0,0-.08.344v0h0a1.427,1.427,0,0,0,.448,1.192h0a1.444,1.444,0,0,0,.164.131,1.417,1.417,0,0,0,.308.16h.006a1.424,1.424,0,0,0,.329.078h.005c.055.006.109.008.167.009H41.643a1.429,1.429,0,0,0,1.085-2.36,1.448,1.448,0,0,0-.191-.185L28.282,87.3l2.635-21.742,3.628-2.185a1.429,1.429,0,0,0-1.475-2.448l-4.225,2.545a1.429,1.429,0,0,0-.681,1.052L25.5,86.476l-10.341.008a1.429,1.429,0,0,0-1.421,1.564l1.025,10.83h-4.1a1.429,1.429,0,0,0,0,2.858ZM44.249,95.2a6.542,6.542,0,1,1,6.541,6.541A6.549,6.549,0,0,1,44.249,95.2Zm2.858,0a3.683,3.683,0,1,0,3.683-3.683A3.687,3.687,0,0,0,47.107,95.2Z" transform="translate(0.25 -60.39)" fill="#0270e9" stroke="#0270e9" stroke-width="0.5"></path> </svg> 