<?xml version="1.0" encoding="UTF-8"?> <svg xmlns="http://www.w3.org/2000/svg" width="63.405" height="56.408" viewBox="0 0 63.405 56.408"> <path d="M62.9,77.884a1.35,1.35,0,0,1-1.35,1.35H1.35a1.35,1.35,0,1,1,0-2.7h60.2A1.35,1.35,0,0,1,62.9,77.884ZM46.181,30.494A6.181,6.181,0,1,1,40,36.675,6.188,6.188,0,0,1,46.181,30.494Zm0,2.7a3.481,3.481,0,1,0,3.48,3.48A3.485,3.485,0,0,0,46.181,33.195ZM23.624,73.3h4.118a1.35,1.35,0,0,0,1.35-1.35V48.835l11.866-19.7,6.881-3.23a1.35,1.35,0,1,0-1.148-2.445l-7.252,3.4a1.353,1.353,0,0,0-.583.526L26.584,47.763a1.351,1.351,0,0,0-.194.7V70.6H23.624a1.35,1.35,0,1,0,0,2.7ZM39.46,61.719a1.35,1.35,0,0,0,1.9-.139L45.9,56.332a1.35,1.35,0,0,0,.224-1.4L41.7,44.374a1.35,1.35,0,0,0-.49-.6l-2.793-1.886a1.35,1.35,0,0,0-1.9.4L32.2,49.209c-.006.009-.011.02-.016.029s-.027.047-.04.071-.016.033-.024.05-.021.046-.03.07-.015.038-.021.058-.014.043-.021.065-.012.045-.017.067-.009.039-.012.059-.008.051-.012.076,0,.036-.006.054,0,.055,0,.082c0,.011,0,.022,0,.033V71.955a1.35,1.35,0,0,0,1.35,1.35h4.118a1.35,1.35,0,1,0,0-2.7H34.7V50.31l3.369-5.4,1.3.877L43.31,55.2l-3.988,4.615A1.35,1.35,0,0,0,39.46,61.719Z" transform="translate(0.25 -23.076)" fill="#0270e9" stroke="#0270e9" stroke-width="0.5"></path> </svg> 